<svg version="1.2" baseProfile="tiny-ps" xmlns="http://www.w3.org/2000/svg" viewBox="0 0 37 30" width="37" height="30">
	<title>Footer</title>
	<style>
		tspan { white-space:pre }
		.shp0 { fill: #ffffff } 
	</style>
	<g id="Footer">
		<g id="Social Icons">
			<path id="Twitter" class="shp0" d="M33.06 7.5C33.08 7.82 33.09 8.15 33.09 8.48C33.09 18.5 25.45 30.06 11.5 30.06C7.22 30.06 3.23 28.81 -0.13 26.66C0.46 26.73 1.07 26.76 1.68 26.76C5.23 26.76 8.5 25.55 11.1 23.52C7.78 23.45 4.98 21.26 4.02 18.24C4.48 18.34 4.95 18.38 5.44 18.38C6.13 18.38 6.8 18.29 7.44 18.12C3.97 17.42 1.35 14.35 1.35 10.68C1.35 10.65 1.35 10.61 1.35 10.58C2.38 11.15 3.55 11.49 4.79 11.53C2.76 10.17 1.42 7.85 1.42 5.22C1.42 3.83 1.79 2.52 2.44 1.4C6.19 5.99 11.78 9.02 18.08 9.33C17.95 8.77 17.88 8.2 17.88 7.6C17.88 3.41 21.28 0.01 25.47 0.01C27.65 0.01 29.63 0.94 31.01 2.41C32.73 2.07 34.36 1.44 35.83 0.57C35.26 2.34 34.05 3.83 32.49 4.77C34.03 4.58 35.49 4.17 36.85 3.57C35.83 5.09 34.54 6.43 33.06 7.5Z" />
		</g>
	</g>
</svg>